<?xml version="1.0" encoding="UTF-8" standalone="no"?>
<!-- Created with Inkscape (http://www.inkscape.org/) -->

<svg
   xmlns:dc="http://purl.org/dc/elements/1.1/"
   xmlns:cc="http://creativecommons.org/ns#"
   xmlns:rdf="http://www.w3.org/1999/02/22-rdf-syntax-ns#"
   xmlns:svg="http://www.w3.org/2000/svg"
   xmlns="http://www.w3.org/2000/svg"
   xmlns:sodipodi="http://sodipodi.sourceforge.net/DTD/sodipodi-0.dtd"
   xmlns:inkscape="http://www.inkscape.org/namespaces/inkscape"
   id="svg7335"
   version="1.1"
   inkscape:version="0.48.4 r9939"
   width="624"
   height="511"
   sodipodi:docname="Director_chair_icon.png">
  <metadata
     id="metadata7341">
    <rdf:RDF>
      <cc:Work
         rdf:about="">
        <dc:format>image/svg+xml</dc:format>
        <dc:type
           rdf:resource="http://purl.org/dc/dcmitype/StillImage" />
        <dc:title></dc:title>
      </cc:Work>
    </rdf:RDF>
  </metadata>
  <defs
     id="defs7339" />
  <sodipodi:namedview
     pagecolor="#ffffff"
     bordercolor="#666666"
     borderopacity="1"
     objecttolerance="10"
     gridtolerance="10"
     guidetolerance="10"
     inkscape:pageopacity="0"
     inkscape:pageshadow="2"
     inkscape:window-width="1436"
     inkscape:window-height="825"
     id="namedview7337"
     showgrid="false"
     inkscape:zoom="0.95618549"
     inkscape:cx="285.93679"
     inkscape:cy="264.78384"
     inkscape:window-x="1366"
     inkscape:window-y="54"
     inkscape:window-maximized="0"
     inkscape:current-layer="svg7335" />
  <path
     style="fill:#000000"
     d="m 174.55917,475.95722 c -6.95128,-10.97124 -8.11537,-13.15316 -7.19629,-13.48844 2.30432,-0.84062 108.94574,-67.13865 108.94574,-67.73061 0,-0.36397 -1.59749,-1.57473 -3.54998,-2.69057 l -3.54998,-2.0288 -27.95002,18.23491 c -15.37251,10.0292 -30.30285,19.74886 -33.17853,21.59923 l -5.22851,3.36431 -3.67308,-5.53205 c -2.02019,-3.04264 -3.49236,-5.69684 -3.27149,-5.89823 0.22087,-0.20139 13.67659,-8.9995 29.90159,-19.55134 16.225,-10.55185 29.62294,-19.52411 29.7732,-19.93835 0.15025,-0.41424 -23.74606,-15.68435 -53.10292,-33.93358 l -53.3761,-33.18041 -5.637,0 -5.637,0 -0.26009,-45.7462 -0.26009,-45.74619 -10.5,16.22567 c -5.775,8.92413 -10.84289,16.23491 -11.26199,16.2462 -0.41909,0.0113 -3.90678,-2.07063 -7.75043,-4.62649 -4.54685,-3.02345 -6.69454,-5.03237 -6.14719,-5.75 0.4627,-0.60664 13.2879,-20.27942 28.50044,-43.71729 l 27.65917,-42.61429 0,-14.63571 0,-14.6357 -10,0 -10,0 0,-52.500002 0,-52.5 163.5,0 163.5,0 0,52.477441 0,52.477441 -18.25,0.27256 -18.25,0.27256 -0.28247,11.22004 -0.28247,11.22004 13.18924,19.77996 c 7.25409,10.87898 13.5687,19.92996 14.03247,20.11329 0.46378,0.18334 0.84323,0.72594 0.84323,1.2058 0,0.47985 6.525,10.81225 14.5,22.96087 7.975,12.14862 14.5,22.41499 14.5,22.81414 0,1.3524 -14.12908,9.45758 -14.935,8.56749 -0.43905,-0.4849 -3.56989,-5.04413 -6.95743,-10.13163 -3.38754,-5.0875 -6.35148,-9.25 -6.58653,-9.25 -0.23506,0 -0.15117,19.35 0.18643,43 l 0.6138,43 -5.04016,0 c -4.86881,0 -6.81218,1.09356 -57.16174,32.16556 -28.66688,17.69105 -52.00859,32.26015 -51.87048,32.37577 0.13811,0.11562 15.32611,9.54303 33.75111,20.9498 18.425,11.40678 33.6608,20.88598 33.85734,21.0649 0.41758,0.38016 -5.79892,11.44397 -6.4301,11.44397 -0.33536,0 -53.55997,-32.87964 -70.5584,-43.58764 l -3.63117,-2.28741 -5.61883,3.5146 c -3.09036,1.93303 -5.61048,3.81742 -5.60025,4.18753 0.0102,0.3701 23.75708,15.3979 52.7708,33.39509 29.01372,17.99719 53.59273,33.33676 54.62002,34.08793 1.77474,1.29772 1.6041,1.79727 -3.42545,10.02783 -2.91128,4.76414 -5.60317,8.66207 -5.98198,8.66207 -0.37882,0 -27.12355,-16.43811 -59.43276,-36.52913 -32.3092,-20.09102 -59.0761,-36.62852 -59.482,-36.75 -0.4059,-0.12148 -26.98375,15.97913 -59.06188,35.77913 -32.07813,19.8 -58.91099,36.34827 -59.62857,36.77393 -0.89927,0.53343 -2.34306,-0.86492 -4.64622,-4.5 z m 129.26075,-97.54743 5.935,-3.7735 -4.3157,-2.60678 -4.3157,-2.60678 -5.40745,3.40592 c -2.9741,1.87325 -5.52668,3.75207 -5.67241,4.17517 -0.20803,0.60395 6.31597,5.05788 7.55311,5.1565 0.15848,0.0126 2.9589,-1.6751 6.22315,-3.75053 z M 282.3677,365.5127 c 4.41388,-2.93065 5.26752,-3.91086 4.23461,-4.86246 -0.71153,-0.65553 -15.46869,-9.98319 -32.79369,-20.72815 l -31.5,-19.53627 -15.42156,-2.59637 c -8.48186,-1.42801 -15.58917,-2.42876 -15.79403,-2.22391 -0.30463,0.30464 84.61375,53.55487 85.48097,53.60302 0.14597,0.008 2.75313,-1.63704 5.7937,-3.65586 z m 81.94092,-24.34936 c 22.55,-13.88513 41.1875,-25.41093 41.41667,-25.61287 0.22916,-0.20195 -4.49584,-0.36688 -10.5,-0.36651 l -10.91667,6.7e-4 -20.5,13.31347 c -11.275,7.32241 -27.22133,17.71025 -35.43629,23.08409 l -14.93628,9.77061 4.43628,2.79093 c 2.43996,1.53501 4.66129,2.67266 4.93629,2.52812 0.275,-0.14455 18.95,-11.62338 41.5,-25.50851 z m -38.29595,-4.11244 c 13.67548,-8.87281 24.73658,-16.25966 24.58023,-16.41523 -0.15635,-0.15556 -5.45928,0.41955 -11.78428,1.27801 -8.5165,1.15592 -21.02056,1.58793 -48.19732,1.66523 -20.18353,0.0574 -36.32709,0.47581 -35.87459,0.92979 0.95673,0.95985 45.36581,28.63073 45.99168,28.65698 0.23087,0.01 11.60879,-7.24196 25.28428,-16.11478 z m 110.55672,-138.2315 -7.26077,-10.98321 -0.27014,20.62635 -0.27015,20.62636 -5.87313,0.2972 -5.87314,0.29719 13.14328,33.23808 13.14328,33.23808 0.26077,-43.17842 0.26076,-43.17842 -7.26076,-10.98321 z m -273.87613,55.64412 c 5.56345,-13.32087 10.11536,-24.45837 10.11536,-24.75 0,-0.29163 -3.36485,-0.53023 -7.47744,-0.53023 l -7.47744,0 -0.27256,-18.25 -0.27256,-18.25 -3.75,5.96871 -3.75,5.96871 0.003,18.03129 c 0.004,25.64491 1.18999,58.94659 2.04354,57.36834 0.39771,-0.73538 5.27502,-12.23595 10.83847,-25.55682 z m 184.11536,-45.21185 c 22.28169,-2.72548 43.11874,-6.58026 60.25,-11.14603 l 3.75,-0.99944 0,-33.46557 0,-33.46557 -117.75,0.25412 -117.75,0.25411 -0.26818,22.51685 c -0.1475,12.38427 0.0775,26.31575 0.5,30.95885 l 0.76818,8.44198 7.16539,2.24213 c 25.85605,8.09065 56.10546,13.86171 85.66966,16.34429 16.73372,1.40517 58.95526,0.35284 77.66495,-1.93572 z"
     id="path7345"
     inkscape:connector-curvature="0" />
</svg>
