<?xml version="1.0" encoding="UTF-8" standalone="no"?>
<!-- Created with Inkscape (http://www.inkscape.org/) -->

<svg
   xmlns:dc="http://purl.org/dc/elements/1.1/"
   xmlns:cc="http://creativecommons.org/ns#"
   xmlns:rdf="http://www.w3.org/1999/02/22-rdf-syntax-ns#"
   xmlns:svg="http://www.w3.org/2000/svg"
   xmlns="http://www.w3.org/2000/svg"
   xmlns:sodipodi="http://sodipodi.sourceforge.net/DTD/sodipodi-0.dtd"
   xmlns:inkscape="http://www.inkscape.org/namespaces/inkscape"
   id="svg18444"
   version="1.1"
   inkscape:version="0.48+devel r13181 custom"
   width="2070.38"
   height="1080"
   xml:space="preserve"
   sodipodi:docname="troy front and side.svg"><metadata
     id="metadata18450"><rdf:RDF><cc:Work
         rdf:about=""><dc:format>image/svg+xml</dc:format><dc:type
           rdf:resource="http://purl.org/dc/dcmitype/StillImage" /><dc:title></dc:title></cc:Work></rdf:RDF></metadata><defs
     id="defs18448"><inkscape:path-effect
       effect="clone_original"
       id="path-effect7228"
       is_visible="true"
       linkedpath="" /></defs><sodipodi:namedview
     pagecolor="#ffffff"
     bordercolor="#666666"
     borderopacity="1"
     objecttolerance="10"
     gridtolerance="10"
     guidetolerance="10"
     inkscape:pageopacity="0"
     inkscape:pageshadow="2"
     inkscape:window-width="1366"
     inkscape:window-height="744"
     id="namedview18446"
     showgrid="false"
     inkscape:zoom="0.53425846"
     inkscape:cx="585.96916"
     inkscape:cy="346.40183"
     inkscape:window-x="0"
     inkscape:window-y="24"
     inkscape:window-maximized="1"
     inkscape:current-layer="g18452" /><g
     id="g18452"
     inkscape:groupmode="layer"
     inkscape:label="penguin_waving_shouting"
     transform="matrix(1.25,0,0,-1.25,0,1080)"><g
       id="g18454"
       transform="scale(1,-1)"><path
         d="M 996.945,-473.23 C 980.791,-430.331 961.969,-375.088 964.109,-321.506 966.859,-252.69 988.145,-208.591 996.762,-186.109 979.609,-180.69 966.34,-173.201 970.322,-172.245 975.791,-170.931 1002.4,-154.635 1007.47,-155.359 1030.27,-170.556 1026.47,-177.64 1046.41,-177.346 1067.2,-177.044 1177.17,-165.746 1185.63,-158.852 1190.98,-154.488 1185.44,-139.419 1194.49,-134.896 1198.38,-132.945 1248.25,-140.38 1253.28,-142.133 1256.13,-143.123 1248.75,-147.563 1232.35,-161.769 1245.98,-182.217 1255.1,-228.556 1249.88,-270.806 1234.24,-397.205 1190.76,-435.754 1188.35,-453.38 1186.84,-464.411 1206.54,-494.843 1211.1,-537.05 1214.54,-568.984 1205.7,-598.421 1200.54,-598.421 1190.29,-598.421 1190.98,-580.75 1183.76,-565.333 1179.38,-555.994 1154.28,-521.461 1154.28,-521.461 1140.61,-568.918 1165.41,-625.289 1160.2,-663.17 1155.33,-698.612 1129.41,-727.139 1074.92,-718.114 1048.21,-713.693 1032.04,-682.177 1033.08,-650.169 1028.4,-647.454 1020.23,-643.267 1024.32,-635.755 1028.4,-628.243 1033.46,-630.553 1035.45,-631.056 1037.83,-619.506 1041.35,-608.226 1042.58,-600.893 1046.15,-579.412 1034.03,-556.405 1034.03,-556.405 1034.03,-556.405 1007.01,-494.515 1007.01,-494.515 989.707,-488.588 968.938,-481.382 968.938,-475.901 968.938,-470.776 984.098,-471.072 992.595,-472.327"
         style="fill:#8cadcb;fill-opacity:1;fill-rule:nonzero;stroke:none"
         id="path18456" /><path
         d="M 1039.87,-608.898 C 1035.37,-617.43 1034.36,-627.616 1033.7,-632.933 1033.7,-632.933 1047.65,-636.701 1054.52,-639.579 1061.38,-642.456 1072.23,-648.435 1074.01,-653.089 1075.78,-657.739 1075.02,-678.075 1083.97,-690.522 1095.28,-706.251 1112.41,-711.657 1125.84,-700.71 1136.7,-691.854 1140.02,-674.799 1136.69,-662.391 1131.26,-642.16 1098.59,-586.854 1089.73,-567.808 1080.88,-548.757 1056.95,-497.365 1057.84,-456.166 1058.72,-414.967 1108.4,-336.82 1113.22,-286.711 1115.44,-263.678 1112.33,-242.635 1103.03,-232.668 1096.13,-225.285 1069.14,-218.709 1037.46,-226.24 1010.91,-232.553 980.752,-243.078 972.115,-258.803 972.115,-258.803 964.593,-300.221 963.928,-327.248 963.264,-354.27 969.234,-405.445 986.514,-447.75 1002.52,-486.949 1029.57,-547.635 1038.67,-573.784 1039.39,-575.859 1040.95,-581.957 1041.26,-583.604 1043.2,-594.104 1043.44,-602.143 1039.87,-608.898 Z"
         style="fill:#ffffff;fill-opacity:1;fill-rule:nonzero;stroke:none"
         id="path18458" /><path
         d="M 1189.38,-448.62 C 1214.51,-404.432 1242.88,-349.36 1251.26,-271.308 1255.85,-228.774 1247.36,-182.278 1233.63,-161.745 1250.15,-147.451 1257.56,-142.991 1254.7,-141.995 1249.64,-140.232 1199.53,-132.761 1195.63,-134.745 1186.51,-139.268 1192.08,-154.411 1186.7,-158.808 1178.2,-165.727 1067.68,-177.081 1046.76,-177.37 1026.74,-177.679 1030.56,-170.56 1007.63,-155.308 1002.56,-154.561 975.811,-170.938 970.322,-172.245 966.312,-173.218 979.648,-180.745 996.885,-186.183 988.226,-208.787 966.835,-253.107 964.072,-322.245 959.422,-438.532 1030.13,-522.972 1032.63,-558.37"
         style="fill:none;stroke:#000000;stroke-opacity:1;stroke-width:8.14677;stroke-linecap:round;stroke-linejoin:miter;stroke-miterlimit:2.81799;stroke-dasharray:none"
         id="path18460" /><path
         d="M 1033.38,-652.558 C 1034.71,-684.742 1048.59,-716.426 1075.45,-720.87 1130.2,-729.939 1156.25,-701.27 1161.13,-665.62 1166.38,-627.578 1139.52,-569.175 1153.25,-521.461"
         style="fill:none;stroke:#000000;stroke-opacity:1;stroke-width:8.14677;stroke-linecap:round;stroke-linejoin:miter;stroke-miterlimit:2.81799;stroke-dasharray:none"
         id="path18462" /><path
         d="M 1042.95,-603.058 C 1038.28,-611.359 1035.33,-621.733 1034.01,-633.058"
         style="fill:none;stroke:#000000;stroke-opacity:1;stroke-width:8.14677;stroke-linecap:round;stroke-linejoin:miter;stroke-miterlimit:2.81799;stroke-dasharray:none"
         id="path18464" /><path
         d="M 1007.38,-496.245 C 986.753,-489.063 968.926,-483.696 968.947,-477.433 968.926,-471.179 991.442,-472.969 997.072,-474.745"
         style="fill:none;stroke:#000000;stroke-opacity:1;stroke-width:8.14677;stroke-linecap:round;stroke-linejoin:miter;stroke-miterlimit:2.81799;stroke-dasharray:none"
         id="path18466" /><path
         d="M 1059.2,-659.058 C 1051.42,-659.366 1041.12,-656.223 1033.7,-652.62 1029.92,-650.801 1026.89,-648.854 1025.32,-647.183 1020.66,-642.264 1025.71,-634.159 1030.01,-632.808 1030.76,-632.596 1032.04,-632.661 1033.7,-632.933 1041.4,-634.264 1056.91,-640.424 1060.26,-642.683 1064.31,-645.459 1073.68,-648.302 1074.82,-657.62 1075.77,-683.533 1087.96,-707.674 1110.13,-705.87 1137.35,-703.687 1139.87,-671.799 1134.88,-655.808 1124.56,-622.729 1068.26,-552.985 1058.13,-466.12 1051.22,-407.147 1140.73,-298.39 1106.13,-237.37 1087.35,-204.282 976.259,-234.629 972.26,-259.558"
         style="fill:none;stroke:#000000;stroke-opacity:1;stroke-width:8.14677;stroke-linecap:round;stroke-linejoin:miter;stroke-miterlimit:2.81799;stroke-dasharray:none"
         id="path18468" /><path
         d="M 1145.53,-512.428 C 1158.16,-523.135 1182.6,-558.568 1185.51,-570.038 1188.05,-580.056 1193.71,-605.981 1204.6,-596.344 1213.65,-588.344 1214.36,-548.139 1208.06,-515.979 1203.46,-492.554 1183.39,-464.342 1189.38,-448.62"
         style="fill:none;stroke:#000000;stroke-opacity:1;stroke-width:8.14677;stroke-linecap:round;stroke-linejoin:miter;stroke-miterlimit:2.81799;stroke-dasharray:none"
         id="path18470" /><path
         d="M 1121.32,-666.12 C 1116.08,-663.172 1108.62,-666.447 1104.7,-673.433 1100.77,-680.441 1101.87,-688.511 1107.13,-691.495 1112.41,-694.425 1119.86,-691.149 1123.76,-684.12 1127.71,-677.153 1126.62,-669.086 1121.32,-666.12 1121.32,-666.12 1121.32,-666.12 1121.32,-666.12 Z"
         style="fill:#000000;fill-opacity:1;fill-rule:evenodd;stroke:none"
         id="path18472" /><g
         id="g19074"><path
           id="path18474"
           style="fill:#8cadcb;fill-opacity:1;fill-rule:nonzero;stroke:none"
           d="M 550.124,-473.23 C 533.969,-430.331 515.146,-375.088 517.287,-321.506 520.038,-252.69 541.322,-208.591 549.939,-186.109 532.787,-180.69 519.518,-173.201 523.5,-172.245 528.969,-170.931 555.583,-154.635 560.65,-155.359 583.445,-170.556 579.644,-177.64 599.591,-177.346 620.375,-177.044 730.348,-165.746 738.803,-158.852 744.158,-154.488 738.617,-139.419 747.664,-134.896 751.562,-132.945 801.426,-140.38 806.459,-142.133 809.312,-143.123 801.932,-147.563 785.531,-161.769 799.16,-182.217 807.611,-228.479 803.055,-270.806 794.697,-348.463 766.473,-403.257 741.465,-447.236 741.465,-447.236 736.956,-453.195 732.59,-462.531 725.206,-478.32 704.942,-544.956 704.942,-544.956 691.271,-592.413 718.59,-625.289 713.377,-663.17 708.508,-698.612 682.59,-727.139 628.101,-718.114 601.383,-713.693 585.214,-682.177 586.257,-650.169 581.583,-647.454 573.411,-643.267 577.499,-635.755 581.583,-628.243 586.638,-630.553 588.627,-631.056 591.004,-619.506 594.532,-608.226 595.753,-600.893 599.328,-579.412 587.21,-556.405 587.21,-556.405 587.21,-556.405 560.184,-494.515 560.184,-494.515 542.885,-488.588 522.116,-481.382 522.116,-475.901 522.116,-470.776 537.275,-471.072 545.772,-472.327" /><path
           id="path18476"
           style="fill:#ffffff;fill-opacity:1;fill-rule:nonzero;stroke:none"
           d="M 593.051,-608.898 C 590.749,-618.269 587.539,-627.616 586.875,-632.933 586.875,-632.933 600.831,-636.701 607.695,-639.579 614.561,-642.456 625.41,-648.435 627.184,-653.089 628.955,-657.739 628.201,-678.075 637.149,-690.522 648.457,-706.251 665.587,-711.657 679.014,-700.71 689.878,-691.854 693.201,-674.799 689.868,-662.391 684.435,-642.16 651.77,-586.854 642.912,-567.808 634.053,-548.757 610.128,-497.365 611.014,-456.166 611.9,-414.967 661.58,-336.82 666.398,-286.711 668.614,-263.678 665.513,-242.635 656.203,-232.668 649.309,-225.285 622.319,-218.709 590.636,-226.24 564.09,-232.553 533.93,-243.078 525.292,-258.803 525.292,-258.803 517.771,-300.221 517.106,-327.248 516.441,-354.27 522.413,-405.445 539.692,-447.75 556.971,-490.059 590.569,-556.79 593.944,-579.328 595.73,-591.26 595.395,-599.355 593.051,-608.898 Z" /><path
           id="path18478"
           style="fill:none;stroke:#000000;stroke-opacity:1;stroke-width:8.14677;stroke-linecap:round;stroke-linejoin:miter;stroke-miterlimit:2.81799;stroke-dasharray:none"
           d="M 732.162,-463.284 C 757.285,-419.096 796.055,-349.36 804.438,-271.308 809.033,-228.774 800.541,-182.278 786.813,-161.745 803.323,-147.451 810.741,-142.991 807.876,-141.995 802.815,-140.232 752.703,-132.761 748.813,-134.745 739.689,-139.268 745.261,-154.411 739.876,-158.808 731.381,-165.727 620.855,-177.081 599.937,-177.37 579.92,-177.679 583.738,-170.56 560.812,-155.308 555.736,-154.561 528.988,-170.938 523.5,-172.245 519.49,-173.218 532.826,-180.745 550.062,-186.183 541.404,-208.787 520.013,-253.107 517.25,-322.245 512.6,-438.532 583.311,-522.972 585.812,-558.37" /><path
           id="path18480"
           style="fill:none;stroke:#000000;stroke-opacity:1;stroke-width:8.14677;stroke-linecap:round;stroke-linejoin:miter;stroke-miterlimit:2.81799;stroke-dasharray:none"
           d="M 586.562,-652.558 C 587.891,-684.742 601.77,-716.426 628.625,-720.87 683.382,-729.939 709.433,-701.27 714.313,-665.62 719.563,-627.578 691.46,-591.779 705.189,-544.065" /><path
           id="path18482"
           style="fill:none;stroke:#000000;stroke-opacity:1;stroke-width:8.14677;stroke-linecap:round;stroke-linejoin:miter;stroke-miterlimit:2.81799;stroke-dasharray:none"
           d="M 596.125,-603.058 C 591.459,-611.359 588.508,-621.733 587.187,-633.058" /><path
           id="path18484"
           style="fill:none;stroke:#000000;stroke-opacity:1;stroke-width:8.14677;stroke-linecap:round;stroke-linejoin:miter;stroke-miterlimit:2.81799;stroke-dasharray:none"
           d="M 560.562,-496.245 C 539.931,-489.063 522.104,-483.696 522.125,-477.433 522.104,-471.179 544.62,-472.969 550.25,-474.745" /><path
           id="path18486"
           style="fill:none;stroke:#000000;stroke-opacity:1;stroke-width:8.14677;stroke-linecap:round;stroke-linejoin:miter;stroke-miterlimit:2.81799;stroke-dasharray:none"
           d="M 612.375,-659.058 C 604.602,-659.366 594.303,-656.223 586.875,-652.62 583.102,-650.801 580.068,-648.854 578.5,-647.183 573.842,-642.264 578.885,-634.159 583.187,-632.808 583.941,-632.596 585.221,-632.661 586.875,-632.933 594.576,-634.264 610.088,-640.424 613.437,-642.683 617.484,-645.459 626.859,-648.302 628,-657.62 628.945,-683.533 641.141,-707.674 663.312,-705.87 690.525,-703.687 693.045,-671.799 688.063,-655.808 677.736,-622.729 621.437,-552.985 611.312,-466.12 604.402,-407.147 693.905,-298.39 659.312,-237.37 640.523,-204.282 529.437,-234.629 525.437,-259.558" /><path
           id="path18488"
           style="fill:#8cadcb;fill-opacity:1;fill-rule:evenodd;stroke:none"
           d="M 691.132,-534.385 C 703.761,-545.092 724.088,-554.639 725.363,-578.012 727.345,-614.349 692.981,-631.13 707.517,-640.049 717.81,-646.365 762.565,-613.805 771.074,-555.527 776.353,-519.373 726.165,-479.006 732.162,-463.284" /><path
           id="path18490"
           style="fill:none;stroke:#000000;stroke-opacity:1;stroke-width:8.14677;stroke-linecap:round;stroke-linejoin:miter;stroke-miterlimit:2.81799;stroke-dasharray:none"
           d="M 691.132,-534.385 C 703.761,-545.092 724.088,-554.639 725.363,-578.012 727.345,-614.349 692.981,-631.13 707.517,-640.049 717.81,-646.365 762.565,-613.805 771.074,-555.527 776.353,-519.373 726.165,-479.006 732.162,-463.284" /><path
           id="path18492"
           style="fill:#000000;fill-opacity:1;fill-rule:evenodd;stroke:none"
           d="M 674.501,-666.12 C 669.254,-663.172 661.795,-666.447 657.875,-673.433 653.947,-680.441 655.043,-688.511 660.312,-691.495 665.584,-694.425 673.04,-691.149 676.938,-684.12 680.888,-677.153 679.795,-669.086 674.501,-666.12 674.501,-666.12 674.501,-666.12 674.501,-666.12 Z" /></g><path
         d="M 85.0566,-473.23 C 68.9023,-430.331 50.0796,-375.088 52.2202,-321.506 54.9707,-252.69 76.2549,-208.591 84.8721,-186.109 67.7197,-180.69 54.4507,-173.201 58.4331,-172.245 63.9019,-170.931 90.5156,-154.635 95.583,-155.359 118.378,-170.556 114.577,-177.64 134.524,-177.346 155.309,-177.044 265.281,-165.746 273.736,-158.852 279.091,-154.488 273.55,-139.419 282.598,-134.896 286.495,-132.945 336.359,-140.38 341.393,-142.133 344.245,-143.123 336.864,-147.563 320.464,-161.769 334.094,-182.217 342.545,-228.479 337.987,-270.806 329.631,-348.463 301.405,-403.257 276.397,-447.236 276.397,-447.236 262.984,-463.275 267.644,-473.194 273.788,-486.271 298.876,-530.857 292.769,-555.134 290.253,-565.133 242.951,-614.448 242.951,-614.448 244.881,-622.346 248.311,-638.536 248.311,-663.17 248.311,-698.945 217.522,-727.139 163.034,-718.114 136.316,-713.693 120.147,-682.177 121.19,-650.169 116.516,-647.454 108.344,-643.267 112.432,-635.755 116.516,-628.243 121.571,-630.553 123.561,-631.056 125.938,-619.506 131.287,-608.226 132.509,-600.893 133.534,-594.731 133.41,-588.443 132.509,-582.608 130.269,-568.105 122.144,-556.405 122.144,-556.405 122.144,-556.405 95.1172,-494.515 95.1172,-494.515 77.8184,-488.588 57.0493,-481.382 57.0493,-475.901 57.0493,-470.776 72.208,-471.072 80.7056,-472.327"
         style="fill:#8cadcb;fill-opacity:1;fill-rule:nonzero;stroke:none"
         id="path18494" /><path
         d="M 127.984,-608.898 C 123.476,-617.43 122.472,-627.616 121.808,-632.933 121.808,-632.933 135.764,-636.701 142.628,-639.579 149.494,-642.456 160.343,-648.435 162.117,-653.089 163.888,-657.739 163.134,-678.075 172.083,-690.522 183.39,-706.251 200.52,-711.657 213.947,-700.71 224.811,-691.854 228.134,-674.799 224.801,-662.391 219.368,-642.16 186.703,-586.854 177.845,-567.808 168.986,-548.757 145.061,-497.365 145.947,-456.166 146.833,-414.967 196.513,-336.82 201.332,-286.711 203.547,-263.678 200.446,-242.635 191.136,-232.668 184.242,-225.285 157.252,-218.709 125.569,-226.24 99.0229,-232.553 68.8628,-243.078 60.2256,-258.803 60.2256,-258.803 52.7036,-300.221 52.0391,-327.248 51.3745,-354.27 57.3457,-405.445 74.625,-447.75 91.9038,-490.059 124.245,-557.399 130.448,-579.328 133.823,-591.26 131.552,-602.143 127.984,-608.898 Z"
         style="fill:#ffffff;fill-opacity:1;fill-rule:nonzero;stroke:none"
         id="path18496" /><path
         d="M 267.094,-463.284 C 292.218,-419.096 330.987,-349.36 339.371,-271.308 343.965,-228.774 335.473,-182.278 321.746,-161.745 338.255,-147.451 345.673,-142.991 342.808,-141.995 337.748,-140.232 287.635,-132.761 283.746,-134.745 274.622,-139.268 280.193,-154.411 274.808,-158.808 266.313,-165.727 155.789,-177.081 134.871,-177.37 114.853,-177.679 118.671,-170.56 95.7456,-155.308 90.6694,-154.561 63.9209,-170.938 58.4331,-172.245 54.4229,-173.218 67.7593,-180.745 84.9956,-186.183 76.3364,-208.787 54.9453,-253.107 52.1831,-322.245 47.5327,-438.532 118.243,-522.972 120.746,-558.37"
         style="fill:none;stroke:#000000;stroke-opacity:1;stroke-width:8.14677;stroke-linecap:round;stroke-linejoin:miter;stroke-miterlimit:2.81799;stroke-dasharray:none"
         id="path18498" /><path
         d="M 121.496,-652.558 C 122.823,-684.742 136.702,-716.426 163.558,-720.87 218.314,-729.939 244.365,-701.27 249.246,-665.62 254.496,-627.578 226.392,-591.779 240.123,-544.065"
         style="fill:none;stroke:#000000;stroke-opacity:1;stroke-width:8.14677;stroke-linecap:round;stroke-linejoin:miter;stroke-miterlimit:2.81799;stroke-dasharray:none"
         id="path18500" /><path
         d="M 131.058,-603.058 C 126.392,-611.359 123.44,-621.733 122.121,-633.058"
         style="fill:none;stroke:#000000;stroke-opacity:1;stroke-width:8.14677;stroke-linecap:round;stroke-linejoin:miter;stroke-miterlimit:2.81799;stroke-dasharray:none"
         id="path18502" /><path
         d="M 95.4956,-496.245 C 74.8633,-489.063 57.0361,-483.696 57.0581,-477.433 57.0361,-471.179 79.5527,-472.969 85.1831,-474.745"
         style="fill:none;stroke:#000000;stroke-opacity:1;stroke-width:8.14677;stroke-linecap:round;stroke-linejoin:miter;stroke-miterlimit:2.81799;stroke-dasharray:none"
         id="path18504" /><path
         d="M 147.308,-659.058 C 139.535,-659.366 129.235,-656.223 121.808,-652.62 118.034,-650.801 115.001,-648.854 113.433,-647.183 108.775,-642.264 113.818,-634.159 118.121,-632.808 118.875,-632.596 120.154,-632.661 121.808,-632.933 129.508,-634.264 145.021,-640.424 148.371,-642.683 152.417,-645.459 161.792,-648.302 162.933,-657.62 163.877,-683.533 176.074,-707.674 198.246,-705.87 225.458,-703.687 227.977,-671.799 222.996,-655.808 212.668,-622.729 156.371,-552.985 146.246,-466.12 139.335,-407.147 228.837,-298.39 194.246,-237.37 175.457,-204.282 64.3691,-234.629 60.3706,-259.558"
         style="fill:none;stroke:#000000;stroke-opacity:1;stroke-width:8.14677;stroke-linecap:round;stroke-linejoin:miter;stroke-miterlimit:2.81799;stroke-dasharray:none"
         id="path18506" /><path
         d="M 226.065,-534.386 C 238.694,-545.093 251.717,-548.434 241.599,-569.514 221.204,-612.005 161.627,-630.281 176.162,-639.2 182.951,-643.366 216.327,-625.455 248.109,-600.675 264.515,-587.883 291.494,-565.112 294.185,-551.871 301.412,-516.311 261.098,-479.006 267.094,-463.285"
         style="fill:#8cadcb;fill-opacity:1;fill-rule:evenodd;stroke:none"
         id="path18508" /><path
         d="M 226.065,-534.385 C 238.694,-545.092 251.717,-548.434 241.599,-569.513 221.204,-612.005 164.104,-627.141 176.162,-639.2 189.486,-652.523 282.933,-575.922 291.739,-558.465 308.195,-525.844 261.098,-479.006 267.094,-463.284"
         style="fill:none;stroke:#000000;stroke-opacity:1;stroke-width:8.14677;stroke-linecap:round;stroke-linejoin:miter;stroke-miterlimit:2.81799;stroke-dasharray:none"
         id="path18510" /><path
         d="M 209.433,-666.12 C 204.186,-663.172 196.728,-666.447 192.808,-673.433 188.88,-680.441 189.976,-688.511 195.246,-691.495 200.517,-694.425 207.972,-691.149 211.871,-684.12 215.82,-677.153 214.727,-669.086 209.433,-666.12 209.433,-666.12 209.433,-666.12 209.433,-666.12 Z"
         style="fill:#000000;fill-opacity:1;fill-rule:evenodd;stroke:none"
         id="path18512" /><path
         d="M 1508.35,-705.906 C 1507.86,-705.915 1507.38,-705.904 1506.87,-705.881 1488.23,-705.034 1478.6,-690.501 1475.24,-678.491 1471.59,-665.45 1474.2,-657.22 1471.27,-653.349 1464.01,-643.77 1443.65,-635.702 1430.77,-632.8 1430.77,-632.8 1432.93,-617.505 1436.21,-608.382 1439.5,-599.259 1443.31,-593.526 1440.91,-579.943 1438.51,-566.36 1419.46,-528.748 1404.16,-496.151 1386.47,-458.467 1360.89,-401.867 1361.01,-333.062 1361.06,-306.751 1364.27,-282.666 1368.68,-261.953 1369.2,-261.123 1369.54,-260.404 1369.65,-259.781 1371.28,-250.537 1400.9,-228.291 1446.7,-223.703 1487.54,-219.612 1511.62,-226.767 1511.39,-265.499 1510.96,-338.108 1452.92,-411.842 1455.46,-457.876 1460.96,-556.671 1535.12,-628.212 1533.99,-674.821 1533.6,-690.983 1523.61,-705.669 1508.35,-705.906 1508.35,-705.906 1508.35,-705.906 1508.35,-705.906 Z"
         style="fill:#ffffff;fill-opacity:1;fill-rule:nonzero;stroke:none"
         id="path18514" /><path
         d="M 1491.55,-722.56 C 1474.78,-722.56 1456,-716.584 1446.01,-703.584 1431.43,-684.608 1430.03,-652.3 1430.03,-652.3 1430.03,-652.3 1416.05,-647.856 1419.25,-639.067 1422.01,-631.464 1428.52,-632.306 1430.23,-632.675 1430.25,-632.685 1430.29,-632.696 1430.31,-632.7 1430.54,-632.753 1430.68,-632.8 1430.68,-632.8 1443.56,-635.702 1463.92,-643.77 1471.18,-653.349 1474.11,-657.219 1471.5,-665.45 1475.15,-678.491 1478.51,-690.501 1488.14,-705.034 1506.79,-705.881 1522.89,-706.613 1533.5,-691.504 1533.9,-674.821 1535.03,-628.212 1460.87,-556.671 1455.38,-457.876 1452.83,-411.842 1510.88,-338.108 1511.3,-265.499 1511.53,-226.767 1487.45,-219.612 1446.61,-223.703 1400.81,-228.291 1371.19,-250.537 1369.56,-259.781 1369.45,-260.404 1369.11,-261.123 1368.59,-261.953 1378.4,-215.888 1394.15,-186.525 1394.15,-186.525 1394.15,-186.525 1366.71,-179.08 1367.51,-173.667 1368.09,-169.771 1400.51,-155.137 1404.34,-155.665 1408.69,-156.266 1425.25,-174.857 1433.63,-177.263 1443.93,-180.221 1573.62,-165.531 1583.84,-158.687 1586.82,-156.686 1584.49,-139.914 1591.03,-134.917 1594.42,-132.32 1647.66,-140.454 1650.15,-143.706 1652.11,-146.265 1630.63,-162.082 1630.63,-162.082 1639.03,-181.7 1649.15,-199.36 1648.55,-247.572 1647.63,-322.577 1617.39,-398.271 1586.22,-448.316 1604.38,-444.83 1638.96,-454.105 1639.16,-460.298 1639.4,-467.485 1626.18,-469.686 1620.59,-470.484 1615,-471.283 1571.3,-495.656 1551.08,-516.226 1548.17,-527.34 1546.76,-537.388 1547.28,-554.976 1547.88,-574.95 1557.47,-624.485 1558.27,-658.242 1558.95,-687.042 1540.09,-721.761 1491.55,-722.56 Z"
         style="fill:#8cadcb;fill-opacity:1;fill-rule:nonzero;stroke:none"
         id="path18516" /><path
         d="M 1403.78,-495.277 C 1389.75,-491.529 1367.51,-484.521 1367.42,-477.675 1367.35,-471.665 1382.85,-471.958 1393.56,-472.882 1397.09,-480.947 1400.55,-488.408 1403.78,-495.277 Z"
         style="fill:#8cadcb;fill-opacity:1;fill-rule:nonzero;stroke:none"
         id="path18518" /><path
         d="M 1586.22,-448.316 C 1611.32,-404.172 1639.83,-349.473 1648.21,-271.525 1652.79,-229.042 1644.31,-182.605 1630.63,-162.082 1647.09,-147.824 1654.49,-143.369 1651.63,-142.375 1646.58,-140.614 1596.53,-133.152 1592.62,-135.11 1583.53,-139.65 1589.1,-154.774 1583.72,-159.154 1575.24,-166.075 1464.86,-177.415 1443.99,-177.718 1423.97,-178.013 1427.79,-170.902 1404.9,-155.649 1399.82,-154.924 1366.42,-170.907 1367.5,-174.016 1368.85,-177.939 1376.94,-181.075 1394.16,-186.514 1385.5,-209.081 1364.14,-253.344 1361.38,-322.417 1356.74,-438.529 1427.36,-522.86 1429.83,-558.192"
         style="fill:none;stroke:#000000;stroke-opacity:1;stroke-width:8.14677;stroke-linecap:round;stroke-linejoin:miter;stroke-miterlimit:2.81799;stroke-dasharray:none"
         id="path18520" /><path
         d="M 1430.61,-652.306 C 1431.93,-684.423 1445.79,-716.065 1472.61,-720.505 1527.3,-729.562 1553.32,-700.93 1558.21,-665.354 1563.43,-627.332 1537.92,-563.858 1551.65,-516.221"
         style="fill:none;stroke:#000000;stroke-opacity:1;stroke-width:8.14677;stroke-linecap:round;stroke-linejoin:miter;stroke-miterlimit:2.81799;stroke-dasharray:none"
         id="path18522" /><path
         d="M 1440.14,-602.844 C 1435.5,-611.134 1432.55,-621.495 1431.24,-632.793"
         style="fill:none;stroke:#000000;stroke-opacity:1;stroke-width:8.14677;stroke-linecap:round;stroke-linejoin:miter;stroke-miterlimit:2.81799;stroke-dasharray:none"
         id="path18524" /><path
         d="M 1404.65,-496.141 C 1384.03,-488.996 1366.23,-483.636 1366.23,-477.387 1366.23,-471.135 1388.72,-472.922 1394.34,-474.707"
         style="fill:none;stroke:#000000;stroke-opacity:1;stroke-width:8.14677;stroke-linecap:round;stroke-linejoin:miter;stroke-miterlimit:2.81799;stroke-dasharray:none"
         id="path18526" /><path
         d="M 1456.4,-658.769 C 1448.62,-659.079 1438.34,-655.94 1430.93,-652.353 1427.15,-650.526 1424.12,-648.581 1422.55,-646.921 1417.9,-641.999 1422.94,-633.905 1427.24,-632.575 1427.99,-632.344 1429.27,-632.409 1430.89,-632.687 1438.61,-634.01 1454.1,-640.162 1457.44,-642.437 1461.49,-645.19 1470.85,-648.03 1472,-657.317 1472.93,-683.215 1485.11,-707.325 1507.23,-705.541 1534.43,-703.343 1536.95,-671.495 1531.97,-655.532 1521.66,-622.49 1465.44,-552.835 1455.31,-466.105 1448.42,-407.186 1537.81,-298.568 1503.24,-237.624 1484.5,-204.581 1373.55,-234.889 1369.57,-259.768"
         style="fill:none;stroke:#000000;stroke-opacity:1;stroke-width:8.14677;stroke-linecap:round;stroke-linejoin:miter;stroke-miterlimit:2.81799;stroke-dasharray:none"
         id="path18528" /><path
         d="M 1551.65,-516.221 C 1561.98,-503.302 1614.09,-470.963 1624.4,-470.071 1634.7,-469.176 1647.82,-458.462 1633.76,-454.89 1622.1,-451.921 1602.67,-446.492 1586.22,-448.316 1586.22,-448.316 1586.22,-448.316 1586.22,-448.316 1569.01,-450.725 1541.94,-462.926 1541.94,-462.926"
         style="fill:none;stroke:#000000;stroke-opacity:1;stroke-width:8.14677;stroke-linecap:round;stroke-linejoin:miter;stroke-miterlimit:2.81799;stroke-dasharray:none"
         id="path18530" /><path
         d="M 1518.3,-666.636 C 1513.03,-663.685 1505.58,-666.956 1501.67,-673.946 1497.75,-680.933 1498.84,-688.99 1504.1,-691.941 1509.37,-694.896 1516.81,-691.626 1520.73,-684.636 1524.65,-677.647 1523.56,-669.591 1518.3,-666.636 Z"
         style="fill:#000000;fill-opacity:1;fill-rule:nonzero;stroke:none"
         id="path18532" /></g><path
       style="fill:none;stroke:#000000;stroke-width:0.80000001px;stroke-linecap:butt;stroke-linejoin:miter;stroke-opacity:1"
       d="m 805.60256,-113.80256 22.46104,0 0,-28.45072 c 0,0 -37.43503,-2.9948 -25.45584,-11.9792 11.97928,-8.9844 67.38312,-5.9896 67.38312,-5.9896 l -32.9428,53.90648 c 0,0 107.81296,16.47144 101.82336,104.81816 -5.9896,88.346792 -85.352,242.57926 -85.352,242.57926"
       id="path7226"
       inkscape:connector-curvature="0"
       transform="translate(2.5609288e-5,0)" /></g></svg>